<svg height="512pt" viewBox="0 -36 512 512" width="512pt" xmlns="http://www.w3.org/2000/svg"><path d="m489.5 207h-16.5v-10.5c0-17.921875-14.578125-32.5-32.5-32.5h-34.5v-51.5c0-34.464844-28.035156-62.5-62.5-62.5h-5c-18.996094 0-36.027344 8.53125-47.5 21.945312v-49.445312c0-12.40625-10.09375-22.5-22.5-22.5h-25c-12.40625 0-22.5 10.09375-22.5 22.5v62.957031c-12.609375-6.101562-26.445312-9.289062-40.667969-9.289062-14.089843 0-27.460937 3.140625-39.457031 8.746093l-3.066406-37.851562c-.226563-2.78125-1.976563-5.210938-4.546875-6.300781-2.570313-1.089844-5.53125-.660157-7.6875 1.109375l-53.234375 43.714844c-2.0625 1.691406-3.070313 4.355468-2.644532 6.992187.425782 2.632813 2.21875 4.84375 4.710938 5.804687l33.085938 12.734376c-11.804688 14.660156-19.28125 32.9375-20.480469 52.882812h-15.511719c-17.921875 0-32.5 14.578125-32.5 32.5v10.5h-16.5c-12.40625 0-22.5 10.09375-22.5 22.5v25c0 12.40625 10.09375 22.5 22.5 22.5h.753906l22.839844 124.097656c4.148438 22.542969 23.796875 38.902344 46.714844 38.902344h248.6875c4.144531 0 7.5-3.355469 7.5-7.5s-3.355469-7.5-7.5-7.5h-248.6875c-15.679688 0-29.125-11.195312-31.960938-26.617188l-22.339844-121.382812h72.992188c4.140625 0 7.5-3.355469 7.5-7.5s-3.359375-7.5-7.5-7.5h-89c-4.136719 0-7.5-3.363281-7.5-7.5v-25c0-4.136719 3.363281-7.5 7.5-7.5h467c4.136719 0 7.5 3.363281 7.5 7.5v25c0 4.136719-3.363281 7.5-7.5 7.5h-343.007812c-4.140626 0-7.5 3.355469-7.5 7.5s3.359374 7.5 7.5 7.5h327l-22.339844 121.382812c-2.839844 15.421876-16.28125 26.617188-31.960938 26.617188h-42.691406c-4.144531 0-7.5 3.355469-7.5 7.5s3.355469 7.5 7.5 7.5h42.691406c22.917969 0 42.566406-16.359375 46.714844-38.902344l22.839844-124.097656h.753906c12.40625 0 22.5-10.09375 22.5-22.5v-25c0-12.40625-10.09375-22.5-22.5-22.5zm-49-28c9.648438 0 17.5 7.851562 17.5 17.5v10.5h-52v-28zm-49.5-37h-42.5c-4.136719 0-7.5-3.363281-7.5-7.5s3.363281-7.5 7.5-7.5h42.5zm-266.984375-79.441406 2.488281 30.703125c-2.695312 1.902343-5.28125 3.945312-7.757812 6.117187l-26.9375-10.371094zm56.316406 28.609375c14.417969 0 28.367188 3.890625 40.582031 11.289062v104.542969h-109.652343c-6.179688-11.417969-9.425781-24.238281-9.425781-37.332031-.003907-43.285157 35.210937-78.5 78.496093-78.5zm-126.332031 105.332031c0-9.648438 7.851562-17.5 17.5-17.5h15.804688c.964843 9.675781 3.421874 19.121094 7.289062 28h-40.59375zm182-174c0-4.136719 3.363281-7.5 7.5-7.5h25c4.136719 0 7.5 3.363281 7.5 7.5v184.5h-40zm55 90c0-26.191406 21.308594-47.5 47.5-47.5h5c26.023438 0 47.21875 21.039062 47.488281 47h-42.488281c-12.40625 0-22.5 10.09375-22.5 22.5s10.09375 22.5 22.5 22.5h42.5v20h-42.5c-12.40625 0-22.5 10.09375-22.5 22.5 0 2.628906.457031 5.152344 1.289062 7.5h-36.289062zm57.5 94.5c-4.136719 0-7.5-3.363281-7.5-7.5s3.363281-7.5 7.5-7.5h42.5v15zm0 0"/></svg>