<svg id="Icons" height="512" viewBox="0 0 74 74" width="512" xmlns="http://www.w3.org/2000/svg"><path d="m71 41.53a1 1 0 0 1 -1-1v-2.97a1 1 0 0 1 2 0v2.97a1 1 0 0 1 -1 1z"/><path d="m69 72h-64a3 3 0 0 1 -3-3v-64a3 3 0 0 1 3-3h64a3 3 0 0 1 3 3v25.56a1 1 0 1 1 -2 0v-25.56a1 1 0 0 0 -1-1h-64a1 1 0 0 0 -1 1v64a1 1 0 0 0 1 1h64a1 1 0 0 0 1-1v-11.56a1 1 0 0 1 2 0v11.56a3 3 0 0 1 -3 3z"/><path d="m71 51.44a1 1 0 0 1 -1-1v-2.91a1 1 0 0 1 2 0v2.91a1 1 0 0 1 -1 1z"/><path d="m71 19h-68a1 1 0 0 1 0-2h68a1 1 0 0 1 0 2z"/><path d="m33.521 11.5h-24.333a1 1 0 0 1 0-2h24.333a1 1 0 0 1 0 2z"/><path d="m63.812 11.5h-2.634a1 1 0 0 1 0-2h2.634a1 1 0 0 1 0 2z"/><path d="m54.151 11.5h-2.635a1 1 0 0 1 0-2h2.635a1 1 0 1 1 0 2z"/><path d="m44.489 11.5h-2.635a1 1 0 0 1 0-2h2.635a1 1 0 0 1 0 2z"/><path d="m22.25 52a12.75 12.75 0 1 1 12.75-12.75 12.765 12.765 0 0 1 -12.75 12.75zm0-23.5a10.75 10.75 0 1 0 10.75 10.75 10.762 10.762 0 0 0 -10.75-10.75z"/><path d="m31.805 47.1a1 1 0 0 1 -.817-.422 10.721 10.721 0 0 0 -17.476 0 1 1 0 0 1 -1.632-1.156 12.721 12.721 0 0 1 20.74 0 1 1 0 0 1 -.815 1.578z"/><path d="m22.25 42.168a5.106 5.106 0 1 1 5.106-5.106 5.111 5.111 0 0 1 -5.106 5.106zm0-8.212a3.106 3.106 0 1 0 3.106 3.106 3.109 3.109 0 0 0 -3.106-3.106z"/><path d="m65 31h-26a1 1 0 0 1 0-2h26a1 1 0 0 1 0 2z"/><path d="m65 41.333h-24a1 1 0 0 1 0-2h24a1 1 0 0 1 0 2z"/><path d="m65 51.667h-28a1 1 0 0 1 0-2h28a1 1 0 0 1 0 2z"/><path d="m65 62h-54a1 1 0 0 1 0-2h54a1 1 0 0 1 0 2z"/></svg>